M48
METRIC,TZ
T1C0.400
T2C0.750
T3C0.800
%
G90
G05
T1
X128270Y-111760
X128270Y-114300
T2
X129255Y-97155
X131255Y-97155
X133255Y-97155
X135255Y-97155
X129255Y-89535
X131255Y-89535
X133255Y-89535
X135255Y-89535
X129255Y-116205
X131255Y-116205
X133255Y-116205
X135255Y-116205
X129255Y-108585
X131255Y-108585
X133255Y-108585
X135255Y-108585
T3
X124841Y-87376
X124841Y-89916
X124841Y-92456
X124841Y-94996
X124841Y-97536
X124841Y-100076
X124841Y-102616
X124841Y-105156
X124841Y-107696
X124841Y-110236
X124841Y-112776
X124841Y-115316
X124841Y-117856
X124841Y-120396
X124841Y-122936
X140081Y-87376
X140081Y-89916
X140081Y-92456
X140081Y-94996
X140081Y-97536
X140081Y-100076
X140081Y-102616
X140081Y-105156
X140081Y-107696
X140081Y-110236
X140081Y-112776
X140081Y-115316
X140081Y-117856
X140081Y-120396
X140081Y-122936
T0
M30
