G04 #@! TF.GenerationSoftware,KiCad,Pcbnew,(5.1.6-0-10_14)*
G04 #@! TF.CreationDate,2020-08-29T18:54:40+02:00*
G04 #@! TF.ProjectId,NanoFan,4e616e6f-4661-46e2-9e6b-696361645f70,rev?*
G04 #@! TF.SameCoordinates,Original*
G04 #@! TF.FileFunction,Soldermask,Bot*
G04 #@! TF.FilePolarity,Negative*
%FSLAX46Y46*%
G04 Gerber Fmt 4.6, Leading zero omitted, Abs format (unit mm)*
G04 Created by KiCad (PCBNEW (5.1.6-0-10_14)) date 2020-08-29 18:54:40*
%MOMM*%
%LPD*%
G01*
G04 APERTURE LIST*
%ADD10C,0.100000*%
G04 APERTURE END LIST*
D10*
G36*
X140329228Y-122117703D02*
G01*
X140484100Y-122181853D01*
X140623481Y-122274985D01*
X140742015Y-122393519D01*
X140835147Y-122532900D01*
X140899297Y-122687772D01*
X140932000Y-122852184D01*
X140932000Y-123019816D01*
X140899297Y-123184228D01*
X140835147Y-123339100D01*
X140742015Y-123478481D01*
X140623481Y-123597015D01*
X140484100Y-123690147D01*
X140329228Y-123754297D01*
X140164816Y-123787000D01*
X139997184Y-123787000D01*
X139832772Y-123754297D01*
X139677900Y-123690147D01*
X139538519Y-123597015D01*
X139419985Y-123478481D01*
X139326853Y-123339100D01*
X139262703Y-123184228D01*
X139230000Y-123019816D01*
X139230000Y-122852184D01*
X139262703Y-122687772D01*
X139326853Y-122532900D01*
X139419985Y-122393519D01*
X139538519Y-122274985D01*
X139677900Y-122181853D01*
X139832772Y-122117703D01*
X139997184Y-122085000D01*
X140164816Y-122085000D01*
X140329228Y-122117703D01*
G37*
G36*
X125089228Y-122117703D02*
G01*
X125244100Y-122181853D01*
X125383481Y-122274985D01*
X125502015Y-122393519D01*
X125595147Y-122532900D01*
X125659297Y-122687772D01*
X125692000Y-122852184D01*
X125692000Y-123019816D01*
X125659297Y-123184228D01*
X125595147Y-123339100D01*
X125502015Y-123478481D01*
X125383481Y-123597015D01*
X125244100Y-123690147D01*
X125089228Y-123754297D01*
X124924816Y-123787000D01*
X124757184Y-123787000D01*
X124592772Y-123754297D01*
X124437900Y-123690147D01*
X124298519Y-123597015D01*
X124179985Y-123478481D01*
X124086853Y-123339100D01*
X124022703Y-123184228D01*
X123990000Y-123019816D01*
X123990000Y-122852184D01*
X124022703Y-122687772D01*
X124086853Y-122532900D01*
X124179985Y-122393519D01*
X124298519Y-122274985D01*
X124437900Y-122181853D01*
X124592772Y-122117703D01*
X124757184Y-122085000D01*
X124924816Y-122085000D01*
X125089228Y-122117703D01*
G37*
G36*
X125089228Y-119577703D02*
G01*
X125244100Y-119641853D01*
X125383481Y-119734985D01*
X125502015Y-119853519D01*
X125595147Y-119992900D01*
X125659297Y-120147772D01*
X125692000Y-120312184D01*
X125692000Y-120479816D01*
X125659297Y-120644228D01*
X125595147Y-120799100D01*
X125502015Y-120938481D01*
X125383481Y-121057015D01*
X125244100Y-121150147D01*
X125089228Y-121214297D01*
X124924816Y-121247000D01*
X124757184Y-121247000D01*
X124592772Y-121214297D01*
X124437900Y-121150147D01*
X124298519Y-121057015D01*
X124179985Y-120938481D01*
X124086853Y-120799100D01*
X124022703Y-120644228D01*
X123990000Y-120479816D01*
X123990000Y-120312184D01*
X124022703Y-120147772D01*
X124086853Y-119992900D01*
X124179985Y-119853519D01*
X124298519Y-119734985D01*
X124437900Y-119641853D01*
X124592772Y-119577703D01*
X124757184Y-119545000D01*
X124924816Y-119545000D01*
X125089228Y-119577703D01*
G37*
G36*
X140329228Y-119577703D02*
G01*
X140484100Y-119641853D01*
X140623481Y-119734985D01*
X140742015Y-119853519D01*
X140835147Y-119992900D01*
X140899297Y-120147772D01*
X140932000Y-120312184D01*
X140932000Y-120479816D01*
X140899297Y-120644228D01*
X140835147Y-120799100D01*
X140742015Y-120938481D01*
X140623481Y-121057015D01*
X140484100Y-121150147D01*
X140329228Y-121214297D01*
X140164816Y-121247000D01*
X139997184Y-121247000D01*
X139832772Y-121214297D01*
X139677900Y-121150147D01*
X139538519Y-121057015D01*
X139419985Y-120938481D01*
X139326853Y-120799100D01*
X139262703Y-120644228D01*
X139230000Y-120479816D01*
X139230000Y-120312184D01*
X139262703Y-120147772D01*
X139326853Y-119992900D01*
X139419985Y-119853519D01*
X139538519Y-119734985D01*
X139677900Y-119641853D01*
X139832772Y-119577703D01*
X139997184Y-119545000D01*
X140164816Y-119545000D01*
X140329228Y-119577703D01*
G37*
G36*
X140329228Y-117037703D02*
G01*
X140484100Y-117101853D01*
X140623481Y-117194985D01*
X140742015Y-117313519D01*
X140835147Y-117452900D01*
X140899297Y-117607772D01*
X140932000Y-117772184D01*
X140932000Y-117939816D01*
X140899297Y-118104228D01*
X140835147Y-118259100D01*
X140742015Y-118398481D01*
X140623481Y-118517015D01*
X140484100Y-118610147D01*
X140329228Y-118674297D01*
X140164816Y-118707000D01*
X139997184Y-118707000D01*
X139832772Y-118674297D01*
X139677900Y-118610147D01*
X139538519Y-118517015D01*
X139419985Y-118398481D01*
X139326853Y-118259100D01*
X139262703Y-118104228D01*
X139230000Y-117939816D01*
X139230000Y-117772184D01*
X139262703Y-117607772D01*
X139326853Y-117452900D01*
X139419985Y-117313519D01*
X139538519Y-117194985D01*
X139677900Y-117101853D01*
X139832772Y-117037703D01*
X139997184Y-117005000D01*
X140164816Y-117005000D01*
X140329228Y-117037703D01*
G37*
G36*
X125089228Y-117037703D02*
G01*
X125244100Y-117101853D01*
X125383481Y-117194985D01*
X125502015Y-117313519D01*
X125595147Y-117452900D01*
X125659297Y-117607772D01*
X125692000Y-117772184D01*
X125692000Y-117939816D01*
X125659297Y-118104228D01*
X125595147Y-118259100D01*
X125502015Y-118398481D01*
X125383481Y-118517015D01*
X125244100Y-118610147D01*
X125089228Y-118674297D01*
X124924816Y-118707000D01*
X124757184Y-118707000D01*
X124592772Y-118674297D01*
X124437900Y-118610147D01*
X124298519Y-118517015D01*
X124179985Y-118398481D01*
X124086853Y-118259100D01*
X124022703Y-118104228D01*
X123990000Y-117939816D01*
X123990000Y-117772184D01*
X124022703Y-117607772D01*
X124086853Y-117452900D01*
X124179985Y-117313519D01*
X124298519Y-117194985D01*
X124437900Y-117101853D01*
X124592772Y-117037703D01*
X124757184Y-117005000D01*
X124924816Y-117005000D01*
X125089228Y-117037703D01*
G37*
G36*
X133382618Y-115288420D02*
G01*
X133463400Y-115312925D01*
X133505336Y-115325646D01*
X133618425Y-115386094D01*
X133717554Y-115467446D01*
X133798906Y-115566575D01*
X133859354Y-115679664D01*
X133859355Y-115679668D01*
X133896580Y-115802382D01*
X133906000Y-115898027D01*
X133906000Y-116511973D01*
X133896580Y-116607618D01*
X133869040Y-116698404D01*
X133859354Y-116730336D01*
X133798906Y-116843425D01*
X133717554Y-116942553D01*
X133618424Y-117023906D01*
X133505335Y-117084354D01*
X133473403Y-117094040D01*
X133382617Y-117121580D01*
X133255000Y-117134149D01*
X133127382Y-117121580D01*
X133036596Y-117094040D01*
X133004664Y-117084354D01*
X132891575Y-117023906D01*
X132792447Y-116942554D01*
X132711094Y-116843424D01*
X132650646Y-116730335D01*
X132640960Y-116698403D01*
X132613420Y-116607617D01*
X132604000Y-116511972D01*
X132604000Y-115898027D01*
X132613420Y-115802382D01*
X132650645Y-115679668D01*
X132650645Y-115679667D01*
X132682957Y-115619217D01*
X132711095Y-115566574D01*
X132724493Y-115550249D01*
X132792447Y-115467446D01*
X132891576Y-115386094D01*
X133004665Y-115325646D01*
X133046601Y-115312925D01*
X133127383Y-115288420D01*
X133255000Y-115275851D01*
X133382618Y-115288420D01*
G37*
G36*
X131382618Y-115288420D02*
G01*
X131463400Y-115312925D01*
X131505336Y-115325646D01*
X131618425Y-115386094D01*
X131717554Y-115467446D01*
X131798906Y-115566575D01*
X131859354Y-115679664D01*
X131859355Y-115679668D01*
X131896580Y-115802382D01*
X131906000Y-115898027D01*
X131906000Y-116511973D01*
X131896580Y-116607618D01*
X131869040Y-116698404D01*
X131859354Y-116730336D01*
X131798906Y-116843425D01*
X131717554Y-116942553D01*
X131618424Y-117023906D01*
X131505335Y-117084354D01*
X131473403Y-117094040D01*
X131382617Y-117121580D01*
X131255000Y-117134149D01*
X131127382Y-117121580D01*
X131036596Y-117094040D01*
X131004664Y-117084354D01*
X130891575Y-117023906D01*
X130792447Y-116942554D01*
X130711094Y-116843424D01*
X130650646Y-116730335D01*
X130640960Y-116698403D01*
X130613420Y-116607617D01*
X130604000Y-116511972D01*
X130604000Y-115898027D01*
X130613420Y-115802382D01*
X130650645Y-115679668D01*
X130650645Y-115679667D01*
X130682957Y-115619217D01*
X130711095Y-115566574D01*
X130724493Y-115550249D01*
X130792447Y-115467446D01*
X130891576Y-115386094D01*
X131004665Y-115325646D01*
X131046601Y-115312925D01*
X131127383Y-115288420D01*
X131255000Y-115275851D01*
X131382618Y-115288420D01*
G37*
G36*
X129382618Y-115288420D02*
G01*
X129463400Y-115312925D01*
X129505336Y-115325646D01*
X129618425Y-115386094D01*
X129717554Y-115467446D01*
X129798906Y-115566575D01*
X129859354Y-115679664D01*
X129859355Y-115679668D01*
X129896580Y-115802382D01*
X129906000Y-115898027D01*
X129906000Y-116511973D01*
X129896580Y-116607618D01*
X129869040Y-116698404D01*
X129859354Y-116730336D01*
X129798906Y-116843425D01*
X129717554Y-116942553D01*
X129618424Y-117023906D01*
X129505335Y-117084354D01*
X129473403Y-117094040D01*
X129382617Y-117121580D01*
X129255000Y-117134149D01*
X129127382Y-117121580D01*
X129036596Y-117094040D01*
X129004664Y-117084354D01*
X128891575Y-117023906D01*
X128792447Y-116942554D01*
X128711094Y-116843424D01*
X128650646Y-116730335D01*
X128640960Y-116698403D01*
X128613420Y-116607617D01*
X128604000Y-116511972D01*
X128604000Y-115898027D01*
X128613420Y-115802382D01*
X128650645Y-115679668D01*
X128650645Y-115679667D01*
X128682957Y-115619217D01*
X128711095Y-115566574D01*
X128724493Y-115550249D01*
X128792447Y-115467446D01*
X128891576Y-115386094D01*
X129004665Y-115325646D01*
X129046601Y-115312925D01*
X129127383Y-115288420D01*
X129255000Y-115275851D01*
X129382618Y-115288420D01*
G37*
G36*
X135746242Y-115283404D02*
G01*
X135783337Y-115294657D01*
X135817515Y-115312925D01*
X135847481Y-115337519D01*
X135872075Y-115367485D01*
X135890343Y-115401663D01*
X135901596Y-115438758D01*
X135906000Y-115483474D01*
X135906000Y-116926526D01*
X135901596Y-116971242D01*
X135890343Y-117008337D01*
X135872075Y-117042515D01*
X135847481Y-117072481D01*
X135817515Y-117097075D01*
X135783337Y-117115343D01*
X135746242Y-117126596D01*
X135701526Y-117131000D01*
X134808474Y-117131000D01*
X134763758Y-117126596D01*
X134726663Y-117115343D01*
X134692485Y-117097075D01*
X134662519Y-117072481D01*
X134637925Y-117042515D01*
X134619657Y-117008337D01*
X134608404Y-116971242D01*
X134604000Y-116926526D01*
X134604000Y-115483474D01*
X134608404Y-115438758D01*
X134619657Y-115401663D01*
X134637925Y-115367485D01*
X134662519Y-115337519D01*
X134692485Y-115312925D01*
X134726663Y-115294657D01*
X134763758Y-115283404D01*
X134808474Y-115279000D01*
X135701526Y-115279000D01*
X135746242Y-115283404D01*
G37*
G36*
X140329228Y-114497703D02*
G01*
X140484100Y-114561853D01*
X140623481Y-114654985D01*
X140742015Y-114773519D01*
X140835147Y-114912900D01*
X140899297Y-115067772D01*
X140932000Y-115232184D01*
X140932000Y-115399816D01*
X140899297Y-115564228D01*
X140835147Y-115719100D01*
X140742015Y-115858481D01*
X140623481Y-115977015D01*
X140484100Y-116070147D01*
X140329228Y-116134297D01*
X140164816Y-116167000D01*
X139997184Y-116167000D01*
X139832772Y-116134297D01*
X139677900Y-116070147D01*
X139538519Y-115977015D01*
X139419985Y-115858481D01*
X139326853Y-115719100D01*
X139262703Y-115564228D01*
X139230000Y-115399816D01*
X139230000Y-115232184D01*
X139262703Y-115067772D01*
X139326853Y-114912900D01*
X139419985Y-114773519D01*
X139538519Y-114654985D01*
X139677900Y-114561853D01*
X139832772Y-114497703D01*
X139997184Y-114465000D01*
X140164816Y-114465000D01*
X140329228Y-114497703D01*
G37*
G36*
X125089228Y-114497703D02*
G01*
X125244100Y-114561853D01*
X125383481Y-114654985D01*
X125502015Y-114773519D01*
X125595147Y-114912900D01*
X125659297Y-115067772D01*
X125692000Y-115232184D01*
X125692000Y-115399816D01*
X125659297Y-115564228D01*
X125595147Y-115719100D01*
X125502015Y-115858481D01*
X125383481Y-115977015D01*
X125244100Y-116070147D01*
X125089228Y-116134297D01*
X124924816Y-116167000D01*
X124757184Y-116167000D01*
X124592772Y-116134297D01*
X124437900Y-116070147D01*
X124298519Y-115977015D01*
X124179985Y-115858481D01*
X124086853Y-115719100D01*
X124022703Y-115564228D01*
X123990000Y-115399816D01*
X123990000Y-115232184D01*
X124022703Y-115067772D01*
X124086853Y-114912900D01*
X124179985Y-114773519D01*
X124298519Y-114654985D01*
X124437900Y-114561853D01*
X124592772Y-114497703D01*
X124757184Y-114465000D01*
X124924816Y-114465000D01*
X125089228Y-114497703D01*
G37*
G36*
X140329228Y-111957703D02*
G01*
X140484100Y-112021853D01*
X140623481Y-112114985D01*
X140742015Y-112233519D01*
X140835147Y-112372900D01*
X140899297Y-112527772D01*
X140932000Y-112692184D01*
X140932000Y-112859816D01*
X140899297Y-113024228D01*
X140835147Y-113179100D01*
X140742015Y-113318481D01*
X140623481Y-113437015D01*
X140484100Y-113530147D01*
X140329228Y-113594297D01*
X140164816Y-113627000D01*
X139997184Y-113627000D01*
X139832772Y-113594297D01*
X139677900Y-113530147D01*
X139538519Y-113437015D01*
X139419985Y-113318481D01*
X139326853Y-113179100D01*
X139262703Y-113024228D01*
X139230000Y-112859816D01*
X139230000Y-112692184D01*
X139262703Y-112527772D01*
X139326853Y-112372900D01*
X139419985Y-112233519D01*
X139538519Y-112114985D01*
X139677900Y-112021853D01*
X139832772Y-111957703D01*
X139997184Y-111925000D01*
X140164816Y-111925000D01*
X140329228Y-111957703D01*
G37*
G36*
X125089228Y-111957703D02*
G01*
X125244100Y-112021853D01*
X125383481Y-112114985D01*
X125502015Y-112233519D01*
X125595147Y-112372900D01*
X125659297Y-112527772D01*
X125692000Y-112692184D01*
X125692000Y-112859816D01*
X125659297Y-113024228D01*
X125595147Y-113179100D01*
X125502015Y-113318481D01*
X125383481Y-113437015D01*
X125244100Y-113530147D01*
X125089228Y-113594297D01*
X124924816Y-113627000D01*
X124757184Y-113627000D01*
X124592772Y-113594297D01*
X124437900Y-113530147D01*
X124298519Y-113437015D01*
X124179985Y-113318481D01*
X124086853Y-113179100D01*
X124022703Y-113024228D01*
X123990000Y-112859816D01*
X123990000Y-112692184D01*
X124022703Y-112527772D01*
X124086853Y-112372900D01*
X124179985Y-112233519D01*
X124298519Y-112114985D01*
X124437900Y-112021853D01*
X124592772Y-111957703D01*
X124757184Y-111925000D01*
X124924816Y-111925000D01*
X125089228Y-111957703D01*
G37*
G36*
X140329228Y-109417703D02*
G01*
X140484100Y-109481853D01*
X140623481Y-109574985D01*
X140742015Y-109693519D01*
X140835147Y-109832900D01*
X140899297Y-109987772D01*
X140932000Y-110152184D01*
X140932000Y-110319816D01*
X140899297Y-110484228D01*
X140835147Y-110639100D01*
X140742015Y-110778481D01*
X140623481Y-110897015D01*
X140484100Y-110990147D01*
X140329228Y-111054297D01*
X140164816Y-111087000D01*
X139997184Y-111087000D01*
X139832772Y-111054297D01*
X139677900Y-110990147D01*
X139538519Y-110897015D01*
X139419985Y-110778481D01*
X139326853Y-110639100D01*
X139262703Y-110484228D01*
X139230000Y-110319816D01*
X139230000Y-110152184D01*
X139262703Y-109987772D01*
X139326853Y-109832900D01*
X139419985Y-109693519D01*
X139538519Y-109574985D01*
X139677900Y-109481853D01*
X139832772Y-109417703D01*
X139997184Y-109385000D01*
X140164816Y-109385000D01*
X140329228Y-109417703D01*
G37*
G36*
X125089228Y-109417703D02*
G01*
X125244100Y-109481853D01*
X125383481Y-109574985D01*
X125502015Y-109693519D01*
X125595147Y-109832900D01*
X125659297Y-109987772D01*
X125692000Y-110152184D01*
X125692000Y-110319816D01*
X125659297Y-110484228D01*
X125595147Y-110639100D01*
X125502015Y-110778481D01*
X125383481Y-110897015D01*
X125244100Y-110990147D01*
X125089228Y-111054297D01*
X124924816Y-111087000D01*
X124757184Y-111087000D01*
X124592772Y-111054297D01*
X124437900Y-110990147D01*
X124298519Y-110897015D01*
X124179985Y-110778481D01*
X124086853Y-110639100D01*
X124022703Y-110484228D01*
X123990000Y-110319816D01*
X123990000Y-110152184D01*
X124022703Y-109987772D01*
X124086853Y-109832900D01*
X124179985Y-109693519D01*
X124298519Y-109574985D01*
X124437900Y-109481853D01*
X124592772Y-109417703D01*
X124757184Y-109385000D01*
X124924816Y-109385000D01*
X125089228Y-109417703D01*
G37*
G36*
X129382618Y-107668420D02*
G01*
X129463400Y-107692925D01*
X129505336Y-107705646D01*
X129618425Y-107766094D01*
X129717554Y-107847446D01*
X129798906Y-107946575D01*
X129859354Y-108059664D01*
X129859355Y-108059668D01*
X129896580Y-108182382D01*
X129906000Y-108278027D01*
X129906000Y-108891973D01*
X129896580Y-108987618D01*
X129869040Y-109078404D01*
X129859354Y-109110336D01*
X129798906Y-109223425D01*
X129717554Y-109322553D01*
X129618424Y-109403906D01*
X129505335Y-109464354D01*
X129473403Y-109474040D01*
X129382617Y-109501580D01*
X129255000Y-109514149D01*
X129127382Y-109501580D01*
X129036596Y-109474040D01*
X129004664Y-109464354D01*
X128891575Y-109403906D01*
X128792447Y-109322554D01*
X128711094Y-109223424D01*
X128650646Y-109110335D01*
X128640960Y-109078403D01*
X128613420Y-108987617D01*
X128604000Y-108891972D01*
X128604000Y-108278027D01*
X128613420Y-108182382D01*
X128650645Y-108059668D01*
X128650645Y-108059667D01*
X128682957Y-107999217D01*
X128711095Y-107946574D01*
X128724493Y-107930249D01*
X128792447Y-107847446D01*
X128891576Y-107766094D01*
X129004665Y-107705646D01*
X129046601Y-107692925D01*
X129127383Y-107668420D01*
X129255000Y-107655851D01*
X129382618Y-107668420D01*
G37*
G36*
X131382618Y-107668420D02*
G01*
X131463400Y-107692925D01*
X131505336Y-107705646D01*
X131618425Y-107766094D01*
X131717554Y-107847446D01*
X131798906Y-107946575D01*
X131859354Y-108059664D01*
X131859355Y-108059668D01*
X131896580Y-108182382D01*
X131906000Y-108278027D01*
X131906000Y-108891973D01*
X131896580Y-108987618D01*
X131869040Y-109078404D01*
X131859354Y-109110336D01*
X131798906Y-109223425D01*
X131717554Y-109322553D01*
X131618424Y-109403906D01*
X131505335Y-109464354D01*
X131473403Y-109474040D01*
X131382617Y-109501580D01*
X131255000Y-109514149D01*
X131127382Y-109501580D01*
X131036596Y-109474040D01*
X131004664Y-109464354D01*
X130891575Y-109403906D01*
X130792447Y-109322554D01*
X130711094Y-109223424D01*
X130650646Y-109110335D01*
X130640960Y-109078403D01*
X130613420Y-108987617D01*
X130604000Y-108891972D01*
X130604000Y-108278027D01*
X130613420Y-108182382D01*
X130650645Y-108059668D01*
X130650645Y-108059667D01*
X130682957Y-107999217D01*
X130711095Y-107946574D01*
X130724493Y-107930249D01*
X130792447Y-107847446D01*
X130891576Y-107766094D01*
X131004665Y-107705646D01*
X131046601Y-107692925D01*
X131127383Y-107668420D01*
X131255000Y-107655851D01*
X131382618Y-107668420D01*
G37*
G36*
X133382618Y-107668420D02*
G01*
X133463400Y-107692925D01*
X133505336Y-107705646D01*
X133618425Y-107766094D01*
X133717554Y-107847446D01*
X133798906Y-107946575D01*
X133859354Y-108059664D01*
X133859355Y-108059668D01*
X133896580Y-108182382D01*
X133906000Y-108278027D01*
X133906000Y-108891973D01*
X133896580Y-108987618D01*
X133869040Y-109078404D01*
X133859354Y-109110336D01*
X133798906Y-109223425D01*
X133717554Y-109322553D01*
X133618424Y-109403906D01*
X133505335Y-109464354D01*
X133473403Y-109474040D01*
X133382617Y-109501580D01*
X133255000Y-109514149D01*
X133127382Y-109501580D01*
X133036596Y-109474040D01*
X133004664Y-109464354D01*
X132891575Y-109403906D01*
X132792447Y-109322554D01*
X132711094Y-109223424D01*
X132650646Y-109110335D01*
X132640960Y-109078403D01*
X132613420Y-108987617D01*
X132604000Y-108891972D01*
X132604000Y-108278027D01*
X132613420Y-108182382D01*
X132650645Y-108059668D01*
X132650645Y-108059667D01*
X132682957Y-107999217D01*
X132711095Y-107946574D01*
X132724493Y-107930249D01*
X132792447Y-107847446D01*
X132891576Y-107766094D01*
X133004665Y-107705646D01*
X133046601Y-107692925D01*
X133127383Y-107668420D01*
X133255000Y-107655851D01*
X133382618Y-107668420D01*
G37*
G36*
X135746242Y-107663404D02*
G01*
X135783337Y-107674657D01*
X135817515Y-107692925D01*
X135847481Y-107717519D01*
X135872075Y-107747485D01*
X135890343Y-107781663D01*
X135901596Y-107818758D01*
X135906000Y-107863474D01*
X135906000Y-109306526D01*
X135901596Y-109351242D01*
X135890343Y-109388337D01*
X135872075Y-109422515D01*
X135847481Y-109452481D01*
X135817515Y-109477075D01*
X135783337Y-109495343D01*
X135746242Y-109506596D01*
X135701526Y-109511000D01*
X134808474Y-109511000D01*
X134763758Y-109506596D01*
X134726663Y-109495343D01*
X134692485Y-109477075D01*
X134662519Y-109452481D01*
X134637925Y-109422515D01*
X134619657Y-109388337D01*
X134608404Y-109351242D01*
X134604000Y-109306526D01*
X134604000Y-107863474D01*
X134608404Y-107818758D01*
X134619657Y-107781663D01*
X134637925Y-107747485D01*
X134662519Y-107717519D01*
X134692485Y-107692925D01*
X134726663Y-107674657D01*
X134763758Y-107663404D01*
X134808474Y-107659000D01*
X135701526Y-107659000D01*
X135746242Y-107663404D01*
G37*
G36*
X140329228Y-106877703D02*
G01*
X140484100Y-106941853D01*
X140623481Y-107034985D01*
X140742015Y-107153519D01*
X140835147Y-107292900D01*
X140899297Y-107447772D01*
X140932000Y-107612184D01*
X140932000Y-107779816D01*
X140899297Y-107944228D01*
X140835147Y-108099100D01*
X140742015Y-108238481D01*
X140623481Y-108357015D01*
X140484100Y-108450147D01*
X140329228Y-108514297D01*
X140164816Y-108547000D01*
X139997184Y-108547000D01*
X139832772Y-108514297D01*
X139677900Y-108450147D01*
X139538519Y-108357015D01*
X139419985Y-108238481D01*
X139326853Y-108099100D01*
X139262703Y-107944228D01*
X139230000Y-107779816D01*
X139230000Y-107612184D01*
X139262703Y-107447772D01*
X139326853Y-107292900D01*
X139419985Y-107153519D01*
X139538519Y-107034985D01*
X139677900Y-106941853D01*
X139832772Y-106877703D01*
X139997184Y-106845000D01*
X140164816Y-106845000D01*
X140329228Y-106877703D01*
G37*
G36*
X125089228Y-106877703D02*
G01*
X125244100Y-106941853D01*
X125383481Y-107034985D01*
X125502015Y-107153519D01*
X125595147Y-107292900D01*
X125659297Y-107447772D01*
X125692000Y-107612184D01*
X125692000Y-107779816D01*
X125659297Y-107944228D01*
X125595147Y-108099100D01*
X125502015Y-108238481D01*
X125383481Y-108357015D01*
X125244100Y-108450147D01*
X125089228Y-108514297D01*
X124924816Y-108547000D01*
X124757184Y-108547000D01*
X124592772Y-108514297D01*
X124437900Y-108450147D01*
X124298519Y-108357015D01*
X124179985Y-108238481D01*
X124086853Y-108099100D01*
X124022703Y-107944228D01*
X123990000Y-107779816D01*
X123990000Y-107612184D01*
X124022703Y-107447772D01*
X124086853Y-107292900D01*
X124179985Y-107153519D01*
X124298519Y-107034985D01*
X124437900Y-106941853D01*
X124592772Y-106877703D01*
X124757184Y-106845000D01*
X124924816Y-106845000D01*
X125089228Y-106877703D01*
G37*
G36*
X140329228Y-104337703D02*
G01*
X140484100Y-104401853D01*
X140623481Y-104494985D01*
X140742015Y-104613519D01*
X140835147Y-104752900D01*
X140899297Y-104907772D01*
X140932000Y-105072184D01*
X140932000Y-105239816D01*
X140899297Y-105404228D01*
X140835147Y-105559100D01*
X140742015Y-105698481D01*
X140623481Y-105817015D01*
X140484100Y-105910147D01*
X140329228Y-105974297D01*
X140164816Y-106007000D01*
X139997184Y-106007000D01*
X139832772Y-105974297D01*
X139677900Y-105910147D01*
X139538519Y-105817015D01*
X139419985Y-105698481D01*
X139326853Y-105559100D01*
X139262703Y-105404228D01*
X139230000Y-105239816D01*
X139230000Y-105072184D01*
X139262703Y-104907772D01*
X139326853Y-104752900D01*
X139419985Y-104613519D01*
X139538519Y-104494985D01*
X139677900Y-104401853D01*
X139832772Y-104337703D01*
X139997184Y-104305000D01*
X140164816Y-104305000D01*
X140329228Y-104337703D01*
G37*
G36*
X125089228Y-104337703D02*
G01*
X125244100Y-104401853D01*
X125383481Y-104494985D01*
X125502015Y-104613519D01*
X125595147Y-104752900D01*
X125659297Y-104907772D01*
X125692000Y-105072184D01*
X125692000Y-105239816D01*
X125659297Y-105404228D01*
X125595147Y-105559100D01*
X125502015Y-105698481D01*
X125383481Y-105817015D01*
X125244100Y-105910147D01*
X125089228Y-105974297D01*
X124924816Y-106007000D01*
X124757184Y-106007000D01*
X124592772Y-105974297D01*
X124437900Y-105910147D01*
X124298519Y-105817015D01*
X124179985Y-105698481D01*
X124086853Y-105559100D01*
X124022703Y-105404228D01*
X123990000Y-105239816D01*
X123990000Y-105072184D01*
X124022703Y-104907772D01*
X124086853Y-104752900D01*
X124179985Y-104613519D01*
X124298519Y-104494985D01*
X124437900Y-104401853D01*
X124592772Y-104337703D01*
X124757184Y-104305000D01*
X124924816Y-104305000D01*
X125089228Y-104337703D01*
G37*
G36*
X140329228Y-101797703D02*
G01*
X140484100Y-101861853D01*
X140623481Y-101954985D01*
X140742015Y-102073519D01*
X140835147Y-102212900D01*
X140899297Y-102367772D01*
X140932000Y-102532184D01*
X140932000Y-102699816D01*
X140899297Y-102864228D01*
X140835147Y-103019100D01*
X140742015Y-103158481D01*
X140623481Y-103277015D01*
X140484100Y-103370147D01*
X140329228Y-103434297D01*
X140164816Y-103467000D01*
X139997184Y-103467000D01*
X139832772Y-103434297D01*
X139677900Y-103370147D01*
X139538519Y-103277015D01*
X139419985Y-103158481D01*
X139326853Y-103019100D01*
X139262703Y-102864228D01*
X139230000Y-102699816D01*
X139230000Y-102532184D01*
X139262703Y-102367772D01*
X139326853Y-102212900D01*
X139419985Y-102073519D01*
X139538519Y-101954985D01*
X139677900Y-101861853D01*
X139832772Y-101797703D01*
X139997184Y-101765000D01*
X140164816Y-101765000D01*
X140329228Y-101797703D01*
G37*
G36*
X125089228Y-101797703D02*
G01*
X125244100Y-101861853D01*
X125383481Y-101954985D01*
X125502015Y-102073519D01*
X125595147Y-102212900D01*
X125659297Y-102367772D01*
X125692000Y-102532184D01*
X125692000Y-102699816D01*
X125659297Y-102864228D01*
X125595147Y-103019100D01*
X125502015Y-103158481D01*
X125383481Y-103277015D01*
X125244100Y-103370147D01*
X125089228Y-103434297D01*
X124924816Y-103467000D01*
X124757184Y-103467000D01*
X124592772Y-103434297D01*
X124437900Y-103370147D01*
X124298519Y-103277015D01*
X124179985Y-103158481D01*
X124086853Y-103019100D01*
X124022703Y-102864228D01*
X123990000Y-102699816D01*
X123990000Y-102532184D01*
X124022703Y-102367772D01*
X124086853Y-102212900D01*
X124179985Y-102073519D01*
X124298519Y-101954985D01*
X124437900Y-101861853D01*
X124592772Y-101797703D01*
X124757184Y-101765000D01*
X124924816Y-101765000D01*
X125089228Y-101797703D01*
G37*
G36*
X125089228Y-99257703D02*
G01*
X125244100Y-99321853D01*
X125383481Y-99414985D01*
X125502015Y-99533519D01*
X125595147Y-99672900D01*
X125659297Y-99827772D01*
X125692000Y-99992184D01*
X125692000Y-100159816D01*
X125659297Y-100324228D01*
X125595147Y-100479100D01*
X125502015Y-100618481D01*
X125383481Y-100737015D01*
X125244100Y-100830147D01*
X125089228Y-100894297D01*
X124924816Y-100927000D01*
X124757184Y-100927000D01*
X124592772Y-100894297D01*
X124437900Y-100830147D01*
X124298519Y-100737015D01*
X124179985Y-100618481D01*
X124086853Y-100479100D01*
X124022703Y-100324228D01*
X123990000Y-100159816D01*
X123990000Y-99992184D01*
X124022703Y-99827772D01*
X124086853Y-99672900D01*
X124179985Y-99533519D01*
X124298519Y-99414985D01*
X124437900Y-99321853D01*
X124592772Y-99257703D01*
X124757184Y-99225000D01*
X124924816Y-99225000D01*
X125089228Y-99257703D01*
G37*
G36*
X140329228Y-99257703D02*
G01*
X140484100Y-99321853D01*
X140623481Y-99414985D01*
X140742015Y-99533519D01*
X140835147Y-99672900D01*
X140899297Y-99827772D01*
X140932000Y-99992184D01*
X140932000Y-100159816D01*
X140899297Y-100324228D01*
X140835147Y-100479100D01*
X140742015Y-100618481D01*
X140623481Y-100737015D01*
X140484100Y-100830147D01*
X140329228Y-100894297D01*
X140164816Y-100927000D01*
X139997184Y-100927000D01*
X139832772Y-100894297D01*
X139677900Y-100830147D01*
X139538519Y-100737015D01*
X139419985Y-100618481D01*
X139326853Y-100479100D01*
X139262703Y-100324228D01*
X139230000Y-100159816D01*
X139230000Y-99992184D01*
X139262703Y-99827772D01*
X139326853Y-99672900D01*
X139419985Y-99533519D01*
X139538519Y-99414985D01*
X139677900Y-99321853D01*
X139832772Y-99257703D01*
X139997184Y-99225000D01*
X140164816Y-99225000D01*
X140329228Y-99257703D01*
G37*
G36*
X140329228Y-96717703D02*
G01*
X140484100Y-96781853D01*
X140623481Y-96874985D01*
X140742015Y-96993519D01*
X140835147Y-97132900D01*
X140899297Y-97287772D01*
X140932000Y-97452184D01*
X140932000Y-97619816D01*
X140899297Y-97784228D01*
X140835147Y-97939100D01*
X140742015Y-98078481D01*
X140623481Y-98197015D01*
X140484100Y-98290147D01*
X140329228Y-98354297D01*
X140164816Y-98387000D01*
X139997184Y-98387000D01*
X139832772Y-98354297D01*
X139677900Y-98290147D01*
X139538519Y-98197015D01*
X139419985Y-98078481D01*
X139326853Y-97939100D01*
X139262703Y-97784228D01*
X139230000Y-97619816D01*
X139230000Y-97452184D01*
X139262703Y-97287772D01*
X139326853Y-97132900D01*
X139419985Y-96993519D01*
X139538519Y-96874985D01*
X139677900Y-96781853D01*
X139832772Y-96717703D01*
X139997184Y-96685000D01*
X140164816Y-96685000D01*
X140329228Y-96717703D01*
G37*
G36*
X125089228Y-96717703D02*
G01*
X125244100Y-96781853D01*
X125383481Y-96874985D01*
X125502015Y-96993519D01*
X125595147Y-97132900D01*
X125659297Y-97287772D01*
X125692000Y-97452184D01*
X125692000Y-97619816D01*
X125659297Y-97784228D01*
X125595147Y-97939100D01*
X125502015Y-98078481D01*
X125383481Y-98197015D01*
X125244100Y-98290147D01*
X125089228Y-98354297D01*
X124924816Y-98387000D01*
X124757184Y-98387000D01*
X124592772Y-98354297D01*
X124437900Y-98290147D01*
X124298519Y-98197015D01*
X124179985Y-98078481D01*
X124086853Y-97939100D01*
X124022703Y-97784228D01*
X123990000Y-97619816D01*
X123990000Y-97452184D01*
X124022703Y-97287772D01*
X124086853Y-97132900D01*
X124179985Y-96993519D01*
X124298519Y-96874985D01*
X124437900Y-96781853D01*
X124592772Y-96717703D01*
X124757184Y-96685000D01*
X124924816Y-96685000D01*
X125089228Y-96717703D01*
G37*
G36*
X131382618Y-96238420D02*
G01*
X131463400Y-96262925D01*
X131505336Y-96275646D01*
X131618425Y-96336094D01*
X131717554Y-96417446D01*
X131798906Y-96516575D01*
X131859354Y-96629664D01*
X131859355Y-96629668D01*
X131896580Y-96752382D01*
X131906000Y-96848027D01*
X131906000Y-97461973D01*
X131896580Y-97557618D01*
X131877712Y-97619816D01*
X131859354Y-97680336D01*
X131798906Y-97793425D01*
X131717554Y-97892553D01*
X131618424Y-97973906D01*
X131505335Y-98034354D01*
X131473403Y-98044040D01*
X131382617Y-98071580D01*
X131255000Y-98084149D01*
X131127382Y-98071580D01*
X131036596Y-98044040D01*
X131004664Y-98034354D01*
X130891575Y-97973906D01*
X130792447Y-97892554D01*
X130711094Y-97793424D01*
X130650646Y-97680335D01*
X130632288Y-97619815D01*
X130613420Y-97557617D01*
X130604000Y-97461972D01*
X130604000Y-96848027D01*
X130613420Y-96752382D01*
X130650645Y-96629668D01*
X130650645Y-96629667D01*
X130682957Y-96569217D01*
X130711095Y-96516574D01*
X130724493Y-96500249D01*
X130792447Y-96417446D01*
X130891576Y-96336094D01*
X131004665Y-96275646D01*
X131046601Y-96262925D01*
X131127383Y-96238420D01*
X131255000Y-96225851D01*
X131382618Y-96238420D01*
G37*
G36*
X133382618Y-96238420D02*
G01*
X133463400Y-96262925D01*
X133505336Y-96275646D01*
X133618425Y-96336094D01*
X133717554Y-96417446D01*
X133798906Y-96516575D01*
X133859354Y-96629664D01*
X133859355Y-96629668D01*
X133896580Y-96752382D01*
X133906000Y-96848027D01*
X133906000Y-97461973D01*
X133896580Y-97557618D01*
X133877712Y-97619816D01*
X133859354Y-97680336D01*
X133798906Y-97793425D01*
X133717554Y-97892553D01*
X133618424Y-97973906D01*
X133505335Y-98034354D01*
X133473403Y-98044040D01*
X133382617Y-98071580D01*
X133255000Y-98084149D01*
X133127382Y-98071580D01*
X133036596Y-98044040D01*
X133004664Y-98034354D01*
X132891575Y-97973906D01*
X132792447Y-97892554D01*
X132711094Y-97793424D01*
X132650646Y-97680335D01*
X132632288Y-97619815D01*
X132613420Y-97557617D01*
X132604000Y-97461972D01*
X132604000Y-96848027D01*
X132613420Y-96752382D01*
X132650645Y-96629668D01*
X132650645Y-96629667D01*
X132682957Y-96569217D01*
X132711095Y-96516574D01*
X132724493Y-96500249D01*
X132792447Y-96417446D01*
X132891576Y-96336094D01*
X133004665Y-96275646D01*
X133046601Y-96262925D01*
X133127383Y-96238420D01*
X133255000Y-96225851D01*
X133382618Y-96238420D01*
G37*
G36*
X129382618Y-96238420D02*
G01*
X129463400Y-96262925D01*
X129505336Y-96275646D01*
X129618425Y-96336094D01*
X129717554Y-96417446D01*
X129798906Y-96516575D01*
X129859354Y-96629664D01*
X129859355Y-96629668D01*
X129896580Y-96752382D01*
X129906000Y-96848027D01*
X129906000Y-97461973D01*
X129896580Y-97557618D01*
X129877712Y-97619816D01*
X129859354Y-97680336D01*
X129798906Y-97793425D01*
X129717554Y-97892553D01*
X129618424Y-97973906D01*
X129505335Y-98034354D01*
X129473403Y-98044040D01*
X129382617Y-98071580D01*
X129255000Y-98084149D01*
X129127382Y-98071580D01*
X129036596Y-98044040D01*
X129004664Y-98034354D01*
X128891575Y-97973906D01*
X128792447Y-97892554D01*
X128711094Y-97793424D01*
X128650646Y-97680335D01*
X128632288Y-97619815D01*
X128613420Y-97557617D01*
X128604000Y-97461972D01*
X128604000Y-96848027D01*
X128613420Y-96752382D01*
X128650645Y-96629668D01*
X128650645Y-96629667D01*
X128682957Y-96569217D01*
X128711095Y-96516574D01*
X128724493Y-96500249D01*
X128792447Y-96417446D01*
X128891576Y-96336094D01*
X129004665Y-96275646D01*
X129046601Y-96262925D01*
X129127383Y-96238420D01*
X129255000Y-96225851D01*
X129382618Y-96238420D01*
G37*
G36*
X135746242Y-96233404D02*
G01*
X135783337Y-96244657D01*
X135817515Y-96262925D01*
X135847481Y-96287519D01*
X135872075Y-96317485D01*
X135890343Y-96351663D01*
X135901596Y-96388758D01*
X135906000Y-96433474D01*
X135906000Y-97876526D01*
X135901596Y-97921242D01*
X135890343Y-97958337D01*
X135872075Y-97992515D01*
X135847481Y-98022481D01*
X135817515Y-98047075D01*
X135783337Y-98065343D01*
X135746242Y-98076596D01*
X135701526Y-98081000D01*
X134808474Y-98081000D01*
X134763758Y-98076596D01*
X134726663Y-98065343D01*
X134692485Y-98047075D01*
X134662519Y-98022481D01*
X134637925Y-97992515D01*
X134619657Y-97958337D01*
X134608404Y-97921242D01*
X134604000Y-97876526D01*
X134604000Y-96433474D01*
X134608404Y-96388758D01*
X134619657Y-96351663D01*
X134637925Y-96317485D01*
X134662519Y-96287519D01*
X134692485Y-96262925D01*
X134726663Y-96244657D01*
X134763758Y-96233404D01*
X134808474Y-96229000D01*
X135701526Y-96229000D01*
X135746242Y-96233404D01*
G37*
G36*
X140329228Y-94177703D02*
G01*
X140484100Y-94241853D01*
X140623481Y-94334985D01*
X140742015Y-94453519D01*
X140835147Y-94592900D01*
X140899297Y-94747772D01*
X140932000Y-94912184D01*
X140932000Y-95079816D01*
X140899297Y-95244228D01*
X140835147Y-95399100D01*
X140742015Y-95538481D01*
X140623481Y-95657015D01*
X140484100Y-95750147D01*
X140329228Y-95814297D01*
X140164816Y-95847000D01*
X139997184Y-95847000D01*
X139832772Y-95814297D01*
X139677900Y-95750147D01*
X139538519Y-95657015D01*
X139419985Y-95538481D01*
X139326853Y-95399100D01*
X139262703Y-95244228D01*
X139230000Y-95079816D01*
X139230000Y-94912184D01*
X139262703Y-94747772D01*
X139326853Y-94592900D01*
X139419985Y-94453519D01*
X139538519Y-94334985D01*
X139677900Y-94241853D01*
X139832772Y-94177703D01*
X139997184Y-94145000D01*
X140164816Y-94145000D01*
X140329228Y-94177703D01*
G37*
G36*
X125089228Y-94177703D02*
G01*
X125244100Y-94241853D01*
X125383481Y-94334985D01*
X125502015Y-94453519D01*
X125595147Y-94592900D01*
X125659297Y-94747772D01*
X125692000Y-94912184D01*
X125692000Y-95079816D01*
X125659297Y-95244228D01*
X125595147Y-95399100D01*
X125502015Y-95538481D01*
X125383481Y-95657015D01*
X125244100Y-95750147D01*
X125089228Y-95814297D01*
X124924816Y-95847000D01*
X124757184Y-95847000D01*
X124592772Y-95814297D01*
X124437900Y-95750147D01*
X124298519Y-95657015D01*
X124179985Y-95538481D01*
X124086853Y-95399100D01*
X124022703Y-95244228D01*
X123990000Y-95079816D01*
X123990000Y-94912184D01*
X124022703Y-94747772D01*
X124086853Y-94592900D01*
X124179985Y-94453519D01*
X124298519Y-94334985D01*
X124437900Y-94241853D01*
X124592772Y-94177703D01*
X124757184Y-94145000D01*
X124924816Y-94145000D01*
X125089228Y-94177703D01*
G37*
G36*
X140329228Y-91637703D02*
G01*
X140484100Y-91701853D01*
X140623481Y-91794985D01*
X140742015Y-91913519D01*
X140835147Y-92052900D01*
X140899297Y-92207772D01*
X140932000Y-92372184D01*
X140932000Y-92539816D01*
X140899297Y-92704228D01*
X140835147Y-92859100D01*
X140742015Y-92998481D01*
X140623481Y-93117015D01*
X140484100Y-93210147D01*
X140329228Y-93274297D01*
X140164816Y-93307000D01*
X139997184Y-93307000D01*
X139832772Y-93274297D01*
X139677900Y-93210147D01*
X139538519Y-93117015D01*
X139419985Y-92998481D01*
X139326853Y-92859100D01*
X139262703Y-92704228D01*
X139230000Y-92539816D01*
X139230000Y-92372184D01*
X139262703Y-92207772D01*
X139326853Y-92052900D01*
X139419985Y-91913519D01*
X139538519Y-91794985D01*
X139677900Y-91701853D01*
X139832772Y-91637703D01*
X139997184Y-91605000D01*
X140164816Y-91605000D01*
X140329228Y-91637703D01*
G37*
G36*
X125089228Y-91637703D02*
G01*
X125244100Y-91701853D01*
X125383481Y-91794985D01*
X125502015Y-91913519D01*
X125595147Y-92052900D01*
X125659297Y-92207772D01*
X125692000Y-92372184D01*
X125692000Y-92539816D01*
X125659297Y-92704228D01*
X125595147Y-92859100D01*
X125502015Y-92998481D01*
X125383481Y-93117015D01*
X125244100Y-93210147D01*
X125089228Y-93274297D01*
X124924816Y-93307000D01*
X124757184Y-93307000D01*
X124592772Y-93274297D01*
X124437900Y-93210147D01*
X124298519Y-93117015D01*
X124179985Y-92998481D01*
X124086853Y-92859100D01*
X124022703Y-92704228D01*
X123990000Y-92539816D01*
X123990000Y-92372184D01*
X124022703Y-92207772D01*
X124086853Y-92052900D01*
X124179985Y-91913519D01*
X124298519Y-91794985D01*
X124437900Y-91701853D01*
X124592772Y-91637703D01*
X124757184Y-91605000D01*
X124924816Y-91605000D01*
X125089228Y-91637703D01*
G37*
G36*
X125089228Y-89097703D02*
G01*
X125244100Y-89161853D01*
X125383481Y-89254985D01*
X125502015Y-89373519D01*
X125595147Y-89512900D01*
X125659297Y-89667772D01*
X125692000Y-89832184D01*
X125692000Y-89999816D01*
X125659297Y-90164228D01*
X125595147Y-90319100D01*
X125502015Y-90458481D01*
X125383481Y-90577015D01*
X125244100Y-90670147D01*
X125089228Y-90734297D01*
X124924816Y-90767000D01*
X124757184Y-90767000D01*
X124592772Y-90734297D01*
X124437900Y-90670147D01*
X124298519Y-90577015D01*
X124179985Y-90458481D01*
X124086853Y-90319100D01*
X124022703Y-90164228D01*
X123990000Y-89999816D01*
X123990000Y-89832184D01*
X124022703Y-89667772D01*
X124086853Y-89512900D01*
X124179985Y-89373519D01*
X124298519Y-89254985D01*
X124437900Y-89161853D01*
X124592772Y-89097703D01*
X124757184Y-89065000D01*
X124924816Y-89065000D01*
X125089228Y-89097703D01*
G37*
G36*
X140329228Y-89097703D02*
G01*
X140484100Y-89161853D01*
X140623481Y-89254985D01*
X140742015Y-89373519D01*
X140835147Y-89512900D01*
X140899297Y-89667772D01*
X140932000Y-89832184D01*
X140932000Y-89999816D01*
X140899297Y-90164228D01*
X140835147Y-90319100D01*
X140742015Y-90458481D01*
X140623481Y-90577015D01*
X140484100Y-90670147D01*
X140329228Y-90734297D01*
X140164816Y-90767000D01*
X139997184Y-90767000D01*
X139832772Y-90734297D01*
X139677900Y-90670147D01*
X139538519Y-90577015D01*
X139419985Y-90458481D01*
X139326853Y-90319100D01*
X139262703Y-90164228D01*
X139230000Y-89999816D01*
X139230000Y-89832184D01*
X139262703Y-89667772D01*
X139326853Y-89512900D01*
X139419985Y-89373519D01*
X139538519Y-89254985D01*
X139677900Y-89161853D01*
X139832772Y-89097703D01*
X139997184Y-89065000D01*
X140164816Y-89065000D01*
X140329228Y-89097703D01*
G37*
G36*
X129382618Y-88618420D02*
G01*
X129463400Y-88642925D01*
X129505336Y-88655646D01*
X129618425Y-88716094D01*
X129717554Y-88797446D01*
X129798906Y-88896575D01*
X129859354Y-89009664D01*
X129859355Y-89009668D01*
X129896580Y-89132382D01*
X129906000Y-89228027D01*
X129906000Y-89841973D01*
X129896580Y-89937618D01*
X129877712Y-89999816D01*
X129859354Y-90060336D01*
X129798906Y-90173425D01*
X129717554Y-90272553D01*
X129618424Y-90353906D01*
X129505335Y-90414354D01*
X129473403Y-90424040D01*
X129382617Y-90451580D01*
X129255000Y-90464149D01*
X129127382Y-90451580D01*
X129036596Y-90424040D01*
X129004664Y-90414354D01*
X128891575Y-90353906D01*
X128792447Y-90272554D01*
X128711094Y-90173424D01*
X128650646Y-90060335D01*
X128632288Y-89999815D01*
X128613420Y-89937617D01*
X128604000Y-89841972D01*
X128604000Y-89228027D01*
X128613420Y-89132382D01*
X128650645Y-89009668D01*
X128650645Y-89009667D01*
X128682957Y-88949217D01*
X128711095Y-88896574D01*
X128724493Y-88880249D01*
X128792447Y-88797446D01*
X128891576Y-88716094D01*
X129004665Y-88655646D01*
X129046601Y-88642925D01*
X129127383Y-88618420D01*
X129255000Y-88605851D01*
X129382618Y-88618420D01*
G37*
G36*
X131382618Y-88618420D02*
G01*
X131463400Y-88642925D01*
X131505336Y-88655646D01*
X131618425Y-88716094D01*
X131717554Y-88797446D01*
X131798906Y-88896575D01*
X131859354Y-89009664D01*
X131859355Y-89009668D01*
X131896580Y-89132382D01*
X131906000Y-89228027D01*
X131906000Y-89841973D01*
X131896580Y-89937618D01*
X131877712Y-89999816D01*
X131859354Y-90060336D01*
X131798906Y-90173425D01*
X131717554Y-90272553D01*
X131618424Y-90353906D01*
X131505335Y-90414354D01*
X131473403Y-90424040D01*
X131382617Y-90451580D01*
X131255000Y-90464149D01*
X131127382Y-90451580D01*
X131036596Y-90424040D01*
X131004664Y-90414354D01*
X130891575Y-90353906D01*
X130792447Y-90272554D01*
X130711094Y-90173424D01*
X130650646Y-90060335D01*
X130632288Y-89999815D01*
X130613420Y-89937617D01*
X130604000Y-89841972D01*
X130604000Y-89228027D01*
X130613420Y-89132382D01*
X130650645Y-89009668D01*
X130650645Y-89009667D01*
X130682957Y-88949217D01*
X130711095Y-88896574D01*
X130724493Y-88880249D01*
X130792447Y-88797446D01*
X130891576Y-88716094D01*
X131004665Y-88655646D01*
X131046601Y-88642925D01*
X131127383Y-88618420D01*
X131255000Y-88605851D01*
X131382618Y-88618420D01*
G37*
G36*
X133382618Y-88618420D02*
G01*
X133463400Y-88642925D01*
X133505336Y-88655646D01*
X133618425Y-88716094D01*
X133717554Y-88797446D01*
X133798906Y-88896575D01*
X133859354Y-89009664D01*
X133859355Y-89009668D01*
X133896580Y-89132382D01*
X133906000Y-89228027D01*
X133906000Y-89841973D01*
X133896580Y-89937618D01*
X133877712Y-89999816D01*
X133859354Y-90060336D01*
X133798906Y-90173425D01*
X133717554Y-90272553D01*
X133618424Y-90353906D01*
X133505335Y-90414354D01*
X133473403Y-90424040D01*
X133382617Y-90451580D01*
X133255000Y-90464149D01*
X133127382Y-90451580D01*
X133036596Y-90424040D01*
X133004664Y-90414354D01*
X132891575Y-90353906D01*
X132792447Y-90272554D01*
X132711094Y-90173424D01*
X132650646Y-90060335D01*
X132632288Y-89999815D01*
X132613420Y-89937617D01*
X132604000Y-89841972D01*
X132604000Y-89228027D01*
X132613420Y-89132382D01*
X132650645Y-89009668D01*
X132650645Y-89009667D01*
X132682957Y-88949217D01*
X132711095Y-88896574D01*
X132724493Y-88880249D01*
X132792447Y-88797446D01*
X132891576Y-88716094D01*
X133004665Y-88655646D01*
X133046601Y-88642925D01*
X133127383Y-88618420D01*
X133255000Y-88605851D01*
X133382618Y-88618420D01*
G37*
G36*
X135746242Y-88613404D02*
G01*
X135783337Y-88624657D01*
X135817515Y-88642925D01*
X135847481Y-88667519D01*
X135872075Y-88697485D01*
X135890343Y-88731663D01*
X135901596Y-88768758D01*
X135906000Y-88813474D01*
X135906000Y-90256526D01*
X135901596Y-90301242D01*
X135890343Y-90338337D01*
X135872075Y-90372515D01*
X135847481Y-90402481D01*
X135817515Y-90427075D01*
X135783337Y-90445343D01*
X135746242Y-90456596D01*
X135701526Y-90461000D01*
X134808474Y-90461000D01*
X134763758Y-90456596D01*
X134726663Y-90445343D01*
X134692485Y-90427075D01*
X134662519Y-90402481D01*
X134637925Y-90372515D01*
X134619657Y-90338337D01*
X134608404Y-90301242D01*
X134604000Y-90256526D01*
X134604000Y-88813474D01*
X134608404Y-88768758D01*
X134619657Y-88731663D01*
X134637925Y-88697485D01*
X134662519Y-88667519D01*
X134692485Y-88642925D01*
X134726663Y-88624657D01*
X134763758Y-88613404D01*
X134808474Y-88609000D01*
X135701526Y-88609000D01*
X135746242Y-88613404D01*
G37*
G36*
X125692000Y-88227000D02*
G01*
X123990000Y-88227000D01*
X123990000Y-86525000D01*
X125692000Y-86525000D01*
X125692000Y-88227000D01*
G37*
G36*
X140329228Y-86557703D02*
G01*
X140484100Y-86621853D01*
X140623481Y-86714985D01*
X140742015Y-86833519D01*
X140835147Y-86972900D01*
X140899297Y-87127772D01*
X140932000Y-87292184D01*
X140932000Y-87459816D01*
X140899297Y-87624228D01*
X140835147Y-87779100D01*
X140742015Y-87918481D01*
X140623481Y-88037015D01*
X140484100Y-88130147D01*
X140329228Y-88194297D01*
X140164816Y-88227000D01*
X139997184Y-88227000D01*
X139832772Y-88194297D01*
X139677900Y-88130147D01*
X139538519Y-88037015D01*
X139419985Y-87918481D01*
X139326853Y-87779100D01*
X139262703Y-87624228D01*
X139230000Y-87459816D01*
X139230000Y-87292184D01*
X139262703Y-87127772D01*
X139326853Y-86972900D01*
X139419985Y-86833519D01*
X139538519Y-86714985D01*
X139677900Y-86621853D01*
X139832772Y-86557703D01*
X139997184Y-86525000D01*
X140164816Y-86525000D01*
X140329228Y-86557703D01*
G37*
M02*
